<?xml version="1.0" encoding="UTF-8" standalone="no"?>
<svg xmlns="http://www.w3.org/2000/svg" xmlns:xlink="http://www.w3.org/1999/xlink"  version="1.2" baseProfile="tiny">
<title>pyqtgraph SVG export</title>
<desc>Generated with Qt and pyqtgraph</desc>
<defs>
</defs>
<g id="GraphicsScene_1">
    <g fill="none" fill-rule="evenodd" id="GraphicsLayout_1" stroke="black" stroke-linecap="square" stroke-linejoin="bevel" stroke-width="1">
        <g fill="none" fill-rule="evenodd" id="PlotItem_1" stroke="black" stroke-linecap="square" stroke-linejoin="bevel" stroke-width="1">
            <g fill="none" fill-rule="evenodd" id="AxisItem_1" stroke="black" stroke-linecap="square" stroke-linejoin="bevel" stroke-width="1">
                <g fill="none" font-family=".Helvetica Neue DeskInterface" font-size="13" font-style="normal" font-weight="400" stroke="#000000" stroke-linecap="square" stroke-linejoin="bevel" stroke-opacity="1" stroke-width="1">
                    <polyline fill="none" points="59.1378,260.2 794.9998,260.2" vector-effect="non-scaling-stroke"/>
                </g>
                <g fill="none" font-family=".Helvetica Neue DeskInterface" font-size="13" font-style="normal" font-weight="400" stroke="#000000" stroke-linecap="square" stroke-linejoin="bevel" stroke-opacity="1" stroke-width="1">
                    <polyline fill="none" points="85.5593,260.2 85.5593,255.2" vector-effect="non-scaling-stroke"/>
                    <polyline fill="none" points="632.7748,260.2 632.7748,255.2" vector-effect="non-scaling-stroke"/>
                </g>
                <g fill="none" font-family=".Helvetica Neue DeskInterface" font-size="13" font-style="normal" font-weight="400" stroke="#000000" stroke-linecap="square" stroke-linejoin="bevel" stroke-opacity="0.498039" stroke-width="1">
                    <polyline fill="none" points="359.1668,260.2 359.1668,256.86667" vector-effect="non-scaling-stroke"/>
                </g>
                <g fill="none" font-family=".Helvetica Neue DeskInterface" font-size="13" font-style="normal" font-weight="400" stroke="#000000" stroke-linecap="square" stroke-linejoin="bevel" stroke-opacity="0.333333" stroke-width="1">
                    <polyline fill="none" points="140.2808,260.2 140.2808,257.7" vector-effect="non-scaling-stroke"/>
                    <polyline fill="none" points="195.0028,260.2 195.0028,257.7" vector-effect="non-scaling-stroke"/>
                    <polyline fill="none" points="249.7238,260.2 249.7238,257.7" vector-effect="non-scaling-stroke"/>
                    <polyline fill="none" points="304.4458,260.2 304.4458,257.7" vector-effect="non-scaling-stroke"/>
                    <polyline fill="none" points="413.8888,260.2 413.8888,257.7" vector-effect="non-scaling-stroke"/>
                    <polyline fill="none" points="468.6098,260.2 468.6098,257.7" vector-effect="non-scaling-stroke"/>
                    <polyline fill="none" points="523.3318,260.2 523.3318,257.7" vector-effect="non-scaling-stroke"/>
                    <polyline fill="none" points="578.0528,260.2 578.0528,257.7" vector-effect="non-scaling-stroke"/>
                    <polyline fill="none" points="687.4958,260.2 687.4958,257.7" vector-effect="non-scaling-stroke"/>
                    <polyline fill="none" points="742.2178,260.2 742.2178,257.7" vector-effect="non-scaling-stroke"/>
                </g>
                <g fill="none" font-family=".Helvetica Neue DeskInterface" font-size="13" font-style="normal" font-weight="400" stroke="#000000" stroke-linecap="square" stroke-linejoin="bevel" stroke-opacity="1" stroke-width="1" transform="matrix(1,0,0,1,59.6378,260.2)">
                    <text fill="#000000" fill-opacity="1" font-family="&quot;.Helvetica Neue DeskInterface&quot;, sans-serif" font-size="13" font-style="normal" font-weight="400" stroke="none" x="22.2969" xml:space="preserve" y="11">0</text>
                    <text fill="#000000" fill-opacity="1" font-family="&quot;.Helvetica Neue DeskInterface&quot;, sans-serif" font-size="13" font-style="normal" font-weight="400" stroke="none" x="562.297" xml:space="preserve" y="11">200</text>
                    <text fill="#000000" fill-opacity="1" font-family="&quot;.Helvetica Neue DeskInterface&quot;, sans-serif" font-size="13" font-style="normal" font-weight="400" stroke="none" x="288.688" xml:space="preserve" y="11">100</text>
                    <text fill="#000000" fill-opacity="1" font-family="&quot;.Helvetica Neue DeskInterface&quot;, sans-serif" font-size="13" font-style="normal" font-weight="400" stroke="none" x="73.4219" xml:space="preserve" y="11">20</text>
                    <text fill="#000000" fill-opacity="1" font-family="&quot;.Helvetica Neue DeskInterface&quot;, sans-serif" font-size="13" font-style="normal" font-weight="400" stroke="none" x="128.141" xml:space="preserve" y="11">40</text>
                    <text fill="#000000" fill-opacity="1" font-family="&quot;.Helvetica Neue DeskInterface&quot;, sans-serif" font-size="13" font-style="normal" font-weight="400" stroke="none" x="182.859" xml:space="preserve" y="11">60</text>
                    <text fill="#000000" fill-opacity="1" font-family="&quot;.Helvetica Neue DeskInterface&quot;, sans-serif" font-size="13" font-style="normal" font-weight="400" stroke="none" x="237.578" xml:space="preserve" y="11">80</text>
                    <text fill="#000000" fill-opacity="1" font-family="&quot;.Helvetica Neue DeskInterface&quot;, sans-serif" font-size="13" font-style="normal" font-weight="400" stroke="none" x="343.422" xml:space="preserve" y="11">120</text>
                    <text fill="#000000" fill-opacity="1" font-family="&quot;.Helvetica Neue DeskInterface&quot;, sans-serif" font-size="13" font-style="normal" font-weight="400" stroke="none" x="398.141" xml:space="preserve" y="11">140</text>
                    <text fill="#000000" fill-opacity="1" font-family="&quot;.Helvetica Neue DeskInterface&quot;, sans-serif" font-size="13" font-style="normal" font-weight="400" stroke="none" x="452.859" xml:space="preserve" y="11">160</text>
                    <text fill="#000000" fill-opacity="1" font-family="&quot;.Helvetica Neue DeskInterface&quot;, sans-serif" font-size="13" font-style="normal" font-weight="400" stroke="none" x="507.578" xml:space="preserve" y="11">180</text>
                    <text fill="#000000" fill-opacity="1" font-family="&quot;.Helvetica Neue DeskInterface&quot;, sans-serif" font-size="13" font-style="normal" font-weight="400" stroke="none" x="617.016" xml:space="preserve" y="11">220</text>
                    <text fill="#000000" fill-opacity="1" font-family="&quot;.Helvetica Neue DeskInterface&quot;, sans-serif" font-size="13" font-style="normal" font-weight="400" stroke="none" x="671.75" xml:space="preserve" y="11">240</text>
                </g>
                <g fill="none" fill-rule="evenodd" id="QGraphicsTextItem_1" stroke="black" stroke-linecap="square" stroke-linejoin="bevel" stroke-width="1">
                    


                    


                    


                    

                </g>
            </g>
            <g fill="none" fill-rule="evenodd" id="AxisItem_2" stroke="black" stroke-linecap="square" stroke-linejoin="bevel" stroke-width="1">
                <g fill="none" font-family=".Helvetica Neue DeskInterface" font-size="13" font-style="normal" font-weight="400" stroke="#000000" stroke-linecap="square" stroke-linejoin="bevel" stroke-opacity="1" stroke-width="1">
                    <polyline fill="none" points="56.8,35.0 56.8,260.2" vector-effect="non-scaling-stroke"/>
                </g>
                <g fill="none" font-family=".Helvetica Neue DeskInterface" font-size="13" font-style="normal" font-weight="400" stroke="#000000" stroke-linecap="square" stroke-linejoin="bevel" stroke-opacity="1" stroke-width="1">
                    <polyline fill="none" points="57.3,246.338 62.3,246.338" vector-effect="non-scaling-stroke"/>
                </g>
                <g fill="none" font-family=".Helvetica Neue DeskInterface" font-size="13" font-style="normal" font-weight="400" stroke="#000000" stroke-linecap="square" stroke-linejoin="bevel" stroke-opacity="0.498039" stroke-width="1">
                    <polyline fill="none" points="57.3,182.636 60.6333,182.636" vector-effect="non-scaling-stroke"/>
                    <polyline fill="none" points="57.3,118.9341 60.6333,118.9341" vector-effect="non-scaling-stroke"/>
                    <polyline fill="none" points="57.3,55.2322 60.6333,55.2322" vector-effect="non-scaling-stroke"/>
                </g>
                <g fill="none" font-family=".Helvetica Neue DeskInterface" font-size="13" font-style="normal" font-weight="400" stroke="#000000" stroke-linecap="square" stroke-linejoin="bevel" stroke-opacity="0.333333" stroke-width="1">
                    <polyline fill="none" points="57.3,214.487 59.8,214.487" vector-effect="non-scaling-stroke"/>
                    <polyline fill="none" points="57.3,150.785 59.8,150.785" vector-effect="non-scaling-stroke"/>
                    <polyline fill="none" points="57.3,87.0832 59.8,87.0832" vector-effect="non-scaling-stroke"/>
                </g>
                <g fill="none" font-family=".Helvetica Neue DeskInterface" font-size="13" font-style="normal" font-weight="400" stroke="#000000" stroke-linecap="square" stroke-linejoin="bevel" stroke-opacity="1" stroke-width="1" transform="matrix(1,0,0,1,5.5,35)">
                    <text fill="#000000" fill-opacity="1" font-family="&quot;.Helvetica Neue DeskInterface&quot;, sans-serif" font-size="13" font-style="normal" font-weight="400" stroke="none" x="39.5781" xml:space="preserve" y="215.125">0</text>
                    <text fill="#000000" fill-opacity="1" font-family="&quot;.Helvetica Neue DeskInterface&quot;, sans-serif" font-size="13" font-style="normal" font-weight="400" stroke="none" x="25.1406" xml:space="preserve" y="151.422">200</text>
                    <text fill="#000000" fill-opacity="1" font-family="&quot;.Helvetica Neue DeskInterface&quot;, sans-serif" font-size="13" font-style="normal" font-weight="400" stroke="none" x="25.1406" xml:space="preserve" y="87.7188">400</text>
                    <text fill="#000000" fill-opacity="1" font-family="&quot;.Helvetica Neue DeskInterface&quot;, sans-serif" font-size="13" font-style="normal" font-weight="400" stroke="none" x="25.1406" xml:space="preserve" y="24.0312">600</text>
                    <text fill="#000000" fill-opacity="1" font-family="&quot;.Helvetica Neue DeskInterface&quot;, sans-serif" font-size="13" font-style="normal" font-weight="400" stroke="none" x="25.1406" xml:space="preserve" y="183.281">100</text>
                    <text fill="#000000" fill-opacity="1" font-family="&quot;.Helvetica Neue DeskInterface&quot;, sans-serif" font-size="13" font-style="normal" font-weight="400" stroke="none" x="25.1406" xml:space="preserve" y="119.578">300</text>
                    <text fill="#000000" fill-opacity="1" font-family="&quot;.Helvetica Neue DeskInterface&quot;, sans-serif" font-size="13" font-style="normal" font-weight="400" stroke="none" x="25.1406" xml:space="preserve" y="55.875">500</text>
                </g>
                <g fill="none" fill-rule="evenodd" id="QGraphicsTextItem_2" stroke="black" stroke-linecap="square" stroke-linejoin="bevel" stroke-width="1">
                    


                    <g fill="none" font-family=".Helvetica Neue DeskInterface" font-size="13" font-style="normal" font-weight="400" stroke="#000000" stroke-linecap="square" stroke-linejoin="bevel" stroke-opacity="1" stroke-width="1" transform="matrix(0,-1,1,0,0,224)">
                        <text fill="#000000" fill-opacity="1" font-family="&quot;.Helvetica Neue DeskInterface&quot;, sans-serif" font-size="13" font-style="normal" font-weight="400" stroke="none" x="4" xml:space="preserve" y="14">spikes/sec (1 msec bins) </text>
                    </g>
                    


                    

                </g>
            </g>
            <g fill="none" fill-rule="evenodd" id="ViewBox_1" stroke="black" stroke-linecap="square" stroke-linejoin="bevel" stroke-width="1">
                <g fill="none" font-family=".Helvetica Neue DeskInterface" font-size="13" font-style="normal" font-weight="400" stroke="none">
                    <path d="M59.1378,35.0 L794.9998,35.0 L794.9998,260.2 L59.1378,260.2 L59.1378,35.0 " fill-rule="evenodd" vector-effect="non-scaling-stroke"/>
                </g>
                <clipPath id="ViewBox_1_clip">
                    <path d="M59.1378,35.0 L795.0,35.0 L795.0,260.2 L59.1378,260.2 L59.1378,35.0 " fill-rule="evenodd" vector-effect="non-scaling-stroke"/>
                </clipPath>
                <g clip-path="url(#ViewBox_1_clip)">
                    <g fill="none" fill-rule="evenodd" id="ChildGroup_1" stroke="black" stroke-linecap="square" stroke-linejoin="bevel" stroke-width="1">
                        <g fill="none" fill-rule="evenodd" id="PlotCurveItem_1" stroke="black" stroke-linecap="square" stroke-linejoin="bevel" stroke-width="1">
                            <g fill="#0000ff" fill-opacity="1" font-family=".Helvetica Neue DeskInterface" font-size="13" font-style="normal" font-weight="400" stroke="none">
                                <path d="M85.0593,246.338 L85.0593,246.338 L87.8063790416,246.338 L87.8063790416,233.5976 L90.5534307224,233.5976 L90.5534307224,233.5976 L93.300509764,233.5976 L93.300509764,246.338 L96.0475614448,246.338 L96.0475614448,239.9678 L98.7946404864,239.9678 L98.7946404864,214.487 L101.541719528,214.487 L101.541719528,214.487 L104.288771209,214.487 L104.288771209,220.8572 L107.03585025,220.8572 L107.03585025,246.338 L109.782901931,246.338 L109.782901931,220.8572 L112.530090416,220.8572 L112.530090416,239.9678 L115.277114736,239.9678 L115.277114736,233.5976 L118.024139056,233.5976 L118.024139056,239.9678 L120.771163376,239.9678 L120.771163376,239.9678 L123.518187696,239.9678 L123.518187696,233.5976 L126.265212016,233.5976 L126.265212016,227.2274 L129.012509944,227.2274 L129.012509944,227.2274 L131.759534264,227.2274 L131.759534264,227.2274 L134.506558584,227.2274 L134.506558584,239.9678 L137.253582904,239.9678 L137.253582904,233.5976 L140.000607224,233.5976 L140.000607224,239.9678 L142.747631544,239.9678 L142.747631544,239.9678 L145.494929472,239.9678 L145.494929472,227.2274 L148.241953792,227.2274 L148.241953792,227.2274 L150.988978112,227.2274 L150.988978112,233.5976 L153.736002432,233.5976 L153.736002432,233.5976 L156.483026752,233.5976 L156.483026752,239.9678 L159.230051072,239.9678 L159.230051072,246.338 L161.977075392,246.338 L161.977075392,227.2274 L164.72437332,227.2274 L164.72437332,220.8572 L167.47139764,220.8572 L167.47139764,233.5976 L170.21842196,233.5976 L170.21842196,227.2274 L172.96544628,227.2274 L172.96544628,227.2274 L175.7124706,227.2274 L175.7124706,227.2274 L178.45949492,227.2274 L178.45949492,233.5976 L181.206792848,233.5976 L181.206792848,246.338 L183.953817168,246.338 L183.953817168,233.5976 L186.700841488,233.5976 L186.700841488,233.5976 L189.447865808,233.5976 L189.447865808,239.9678 L192.194890128,239.9678 L192.194890128,239.9678 L194.941914448,239.9678 L194.941914448,239.9678 L197.689212376,239.9678 L197.689212376,233.5976 L200.436236696,233.5976 L200.436236696,239.9678 L203.183261016,239.9678 L203.183261016,233.5976 L205.930285336,233.5976 L205.930285336,233.5976 L208.677309656,233.5976 L208.677309656,239.9678 L211.424333976,239.9678 L211.424333976,246.338 L214.171631904,246.338 L214.171631904,239.9678 L216.918656224,239.9678 L216.918656224,233.5976 L219.665680544,233.5976 L219.665680544,233.5976 L222.412704864,233.5976 L222.412704864,233.5976 L225.159729184,233.5976 L225.159729184,233.5976 L227.906753504,233.5976 L227.906753504,239.9678 L230.654051432,239.9678 L230.654051432,233.5976 L233.401075752,233.5976 L233.401075752,239.9678 L236.148100072,239.9678 L236.148100072,233.5976 L238.895124392,233.5976 L238.895124392,233.5976 L241.642148712,233.5976 L241.642148712,227.2274 L244.389173032,227.2274 L244.389173032,239.9678 L247.136197352,239.9678 L247.136197352,246.338 L249.88349528,246.338 L249.88349528,246.338 L252.6305196,246.338 L252.6305196,246.338 L255.37754392,246.338 L255.37754392,227.2274 L258.12456824,227.2274 L258.12456824,220.8572 L260.87159256,220.8572 L260.87159256,239.9678 L263.61861688,239.9678 L263.61861688,246.338 L266.365914808,246.338 L266.365914808,233.5976 L269.112939128,233.5976 L269.112939128,227.2274 L271.859963448,227.2274 L271.859963448,239.9678 L274.606987768,239.9678 L274.606987768,239.9678 L277.354012088,239.9678 L277.354012088,239.9678 L280.101036408,239.9678 L280.101036408,233.5976 L282.848334336,233.5976 L282.848334336,227.2274 L285.595358656,227.2274 L285.595358656,239.9678 L288.342382976,239.9678 L288.342382976,246.338 L291.089407296,246.338 L291.089407296,233.5976 L293.836431616,233.5976 L293.836431616,246.338 L296.583455936,246.338 L296.583455936,239.9678 L299.330753864,239.9678 L299.330753864,220.8572 L302.077778184,220.8572 L302.077778184,239.9678 L304.824802504,239.9678 L304.824802504,246.338 L307.571826824,246.338 L307.571826824,227.2274 L310.318851144,227.2274 L310.318851144,239.9678 L313.065875464,239.9678 L313.065875464,246.338 L315.812899784,246.338 L315.812899784,214.487 L318.560197712,214.487 L318.560197712,239.9678 L321.307222032,239.9678 L321.307222032,239.9678 L324.054246352,239.9678 L324.054246352,227.2274 L326.801270672,227.2274 L326.801270672,239.9678 L329.548294992,239.9678 L329.548294992,246.338 L332.295319312,246.338 L332.295319312,246.338 L335.04261724,246.338 L335.04261724,233.5976 L337.78964156,233.5976 L337.78964156,239.9678 L340.53666588,239.9678 L340.53666588,239.9678 L343.2836902,239.9678 L343.2836902,239.9678 L346.03071452,239.9678 L346.03071452,246.338 L348.77773884,246.338 L348.77773884,233.5976 L351.525036768,233.5976 L351.525036768,246.338 L354.272061088,246.338 L354.272061088,239.9678 L357.019085408,239.9678 L357.019085408,233.5976 L359.76720416,233.5976 L359.76720416,227.2274 L362.51422848,227.2274 L362.51422848,239.9678 L365.2612528,239.9678 L365.2612528,246.338 L368.00827712,246.338 L368.00827712,48.8618 L370.75530144,48.8618 L370.75530144,157.1552 L373.50232576,157.1552 L373.50232576,239.9678 L376.24935008,239.9678 L376.24935008,239.9678 L378.9963744,239.9678 L378.9963744,246.338 L381.74339872,246.338 L381.74339872,246.338 L384.49042304,246.338 L384.49042304,239.9678 L387.23744736,239.9678 L387.23744736,220.8572 L389.98447168,220.8572 L389.98447168,214.487 L392.731496,214.487 L392.731496,220.8572 L395.47852032,220.8572 L395.47852032,227.2274 L398.22554464,227.2274 L398.22554464,220.8572 L400.97256896,220.8572 L400.97256896,214.487 L403.71959328,214.487 L403.71959328,214.487 L406.4666176,214.487 L406.4666176,227.2274 L409.21364192,227.2274 L409.21364192,220.8572 L411.96066624,220.8572 L411.96066624,227.2274 L414.70769056,227.2274 L414.70769056,201.7466 L417.45471488,201.7466 L417.45471488,208.1168 L420.2017392,208.1168 L420.2017392,227.2274 L422.94876352,227.2274 L422.94876352,233.5976 L425.69578784,233.5976 L425.69578784,220.8572 L428.44281216,220.8572 L428.44281216,239.9678 L431.18983648,239.9678 L431.18983648,220.8572 L433.9368608,220.8572 L433.9368608,220.8572 L436.68388512,220.8572 L436.68388512,233.5976 L439.43090944,233.5976 L439.43090944,239.9678 L442.17793376,239.9678 L442.17793376,220.8572 L444.92495808,220.8572 L444.92495808,233.5976 L447.6719824,233.5976 L447.6719824,233.5976 L450.41900672,233.5976 L450.41900672,220.8572 L453.16603104,220.8572 L453.16603104,220.8572 L455.91305536,220.8572 L455.91305536,220.8572 L458.66007968,220.8572 L458.66007968,208.1168 L461.407104,208.1168 L461.407104,220.8572 L464.15412832,220.8572 L464.15412832,239.9678 L466.90115264,239.9678 L466.90115264,201.7466 L469.64817696,201.7466 L469.64817696,233.5976 L472.39520128,233.5976 L472.39520128,246.338 L475.1422256,246.338 L475.1422256,233.5976 L477.88924992,233.5976 L477.88924992,246.338 L480.63627424,246.338 L480.63627424,233.5976 L483.38329856,233.5976 L483.38329856,233.5976 L486.13032288,233.5976 L486.13032288,195.3764 L488.8773472,195.3764 L488.8773472,233.5976 L491.62437152,233.5976 L491.62437152,214.487 L494.37139584,214.487 L494.37139584,227.2274 L497.11842016,227.2274 L497.11842016,227.2274 L499.86544448,227.2274 L499.86544448,233.5976 L502.6124688,233.5976 L502.6124688,227.2274 L505.35949312,227.2274 L505.35949312,239.9678 L508.10651744,239.9678 L508.10651744,239.9678 L510.85354176,239.9678 L510.85354176,227.2274 L513.60330216,227.2274 L513.60330216,214.487 L516.35032648,214.487 L516.35032648,246.338 L519.0973508,246.338 L519.0973508,246.338 L521.84437512,246.338 L521.84437512,214.487 L524.59139944,214.487 L524.59139944,220.8572 L527.33842376,220.8572 L527.33842376,227.2274 L530.08544808,227.2274 L530.08544808,227.2274 L532.8324724,227.2274 L532.8324724,233.5976 L535.57949672,233.5976 L535.57949672,220.8572 L538.32652104,220.8572 L538.32652104,227.2274 L541.07354536,227.2274 L541.07354536,227.2274 L543.82056968,227.2274 L543.82056968,227.2274 L546.567594,227.2274 L546.567594,227.2274 L549.31461832,227.2274 L549.31461832,227.2274 L552.06164264,227.2274 L552.06164264,227.2274 L554.80866696,227.2274 L554.80866696,227.2274 L557.55569128,227.2274 L557.55569128,239.9678 L560.3027156,239.9678 L560.3027156,227.2274 L563.04973992,227.2274 L563.04973992,239.9678 L565.79676424,239.9678 L565.79676424,233.5976 L568.54378856,233.5976 L568.54378856,201.7466 L571.29081288,201.7466 L571.29081288,233.5976 L574.0378372,233.5976 L574.0378372,233.5976 L576.78486152,233.5976 L576.78486152,227.2274 L579.53188584,227.2274 L579.53188584,227.2274 L582.27891016,227.2274 L582.27891016,233.5976 L585.02593448,233.5976 L585.02593448,239.9678 L587.7729588,239.9678 L587.7729588,208.1168 L590.51998312,208.1168 L590.51998312,201.7466 L593.26700744,201.7466 L593.26700744,239.9678 L596.01403176,239.9678 L596.01403176,220.8572 L598.76105608,220.8572 L598.76105608,233.5976 L601.5080804,233.5976 L601.5080804,246.338 L604.25510472,246.338 L604.25510472,227.2274 L607.00212904,227.2274 L607.00212904,239.9678 L609.74915336,239.9678 L609.74915336,233.5976 L612.49617768,233.5976 L612.49617768,208.1168 L615.243202,208.1168 L615.243202,239.9678 L617.99022632,239.9678 L617.99022632,208.1168 L620.73725064,208.1168 L620.73725064,220.8572 L623.48427496,220.8572 L623.48427496,214.487 L626.23129928,214.487 L626.23129928,233.5976 L628.9783236,233.5976 L628.9783236,233.5976 L631.72534792,233.5976 L631.72534792,233.5976 L634.47237224,233.5976 L634.47237224,246.338 L637.21939656,246.338 L637.21939656,239.9678 L639.96642088,239.9678 L639.96642088,239.9678 L642.7134452,239.9678 L642.7134452,246.338 L645.46046952,246.338 L645.46046952,246.338 L648.20749384,246.338 L648.20749384,246.338 L650.95451816,246.338 L650.95451816,246.338 L653.70154248,246.338 L653.70154248,246.338 L656.4485668,246.338 L656.4485668,246.338 L659.19559112,246.338 L659.19559112,246.338 L661.94261544,246.338 L661.94261544,246.338 L664.68963976,246.338 L664.68963976,246.338 L667.43666408,246.338 L667.43666408,246.338 L670.1836884,246.338 L670.1836884,246.338 L672.93071272,246.338 L672.93071272,246.338 L675.67773704,246.338 L675.67773704,246.338 L678.42476136,246.338 L678.42476136,246.338 L681.17178568,246.338 L681.17178568,246.338 L683.92154608,246.338 L683.92154608,246.338 L686.6685704,246.338 L686.6685704,246.338 L689.41559472,246.338 L689.41559472,246.338 L692.16261904,246.338 L692.16261904,246.338 L694.90964336,246.338 L694.90964336,246.338 L697.65666768,246.338 L697.65666768,239.9678 L700.403692,239.9678 L700.403692,246.338 L703.15071632,246.338 L703.15071632,246.338 L705.89774064,246.338 L705.89774064,246.338 L708.64476496,246.338 L708.64476496,246.338 L711.39178928,246.338 L711.39178928,246.338 L714.1388136,246.338 L714.1388136,246.338 L716.88583792,246.338 L716.88583792,246.338 L719.63286224,246.338 L719.63286224,246.338 L722.37988656,246.338 L722.37988656,246.338 L725.12691088,246.338 L725.12691088,246.338 L727.8739352,246.338 L727.8739352,246.338 L730.62095952,246.338 L730.62095952,246.338 L733.36798384,246.338 L733.36798384,239.9678 L736.11500816,239.9678 L736.11500816,227.2274 L738.86203248,227.2274 L738.86203248,246.338 L741.6090568,246.338 L741.6090568,246.338 L744.35608112,246.338 L744.35608112,239.9678 L747.10310544,239.9678 L747.10310544,246.338 L749.85012976,246.338 L749.85012976,246.338 L752.59715408,246.338 L752.59715408,233.5976 L755.3441784,233.5976 L755.3441784,246.338 L758.09120272,246.338 L758.09120272,239.9678 L760.83822704,239.9678 L760.83822704,239.9678 L763.58525136,239.9678 L763.58525136,239.9678 L766.33227568,239.9678 L766.33227568,246.338 L769.0793,246.338 L769.0793,246.338 L85.0593,246.338 " fill-rule="evenodd" vector-effect="non-scaling-stroke"/>
                            </g>
                            <g fill="none" font-family=".Helvetica Neue DeskInterface" font-size="13" font-style="normal" font-weight="400" stroke="#ffffff" stroke-linecap="square" stroke-linejoin="bevel" stroke-opacity="1" stroke-width="1">
                                <path d="M85.0593,246.338 L85.0593,246.338 L87.8063790416,246.338 L87.8063790416,233.5976 L90.5534307224,233.5976 L90.5534307224,233.5976 L93.300509764,233.5976 L93.300509764,246.338 L96.0475614448,246.338 L96.0475614448,239.9678 L98.7946404864,239.9678 L98.7946404864,214.487 L101.541719528,214.487 L101.541719528,214.487 L104.288771209,214.487 L104.288771209,220.8572 L107.03585025,220.8572 L107.03585025,246.338 L109.782901931,246.338 L109.782901931,220.8572 L112.530090416,220.8572 L112.530090416,239.9678 L115.277114736,239.9678 L115.277114736,233.5976 L118.024139056,233.5976 L118.024139056,239.9678 L120.771163376,239.9678 L120.771163376,239.9678 L123.518187696,239.9678 L123.518187696,233.5976 L126.265212016,233.5976 L126.265212016,227.2274 L129.012509944,227.2274 L129.012509944,227.2274 L131.759534264,227.2274 L131.759534264,227.2274 L134.506558584,227.2274 L134.506558584,239.9678 L137.253582904,239.9678 L137.253582904,233.5976 L140.000607224,233.5976 L140.000607224,239.9678 L142.747631544,239.9678 L142.747631544,239.9678 L145.494929472,239.9678 L145.494929472,227.2274 L148.241953792,227.2274 L148.241953792,227.2274 L150.988978112,227.2274 L150.988978112,233.5976 L153.736002432,233.5976 L153.736002432,233.5976 L156.483026752,233.5976 L156.483026752,239.9678 L159.230051072,239.9678 L159.230051072,246.338 L161.977075392,246.338 L161.977075392,227.2274 L164.72437332,227.2274 L164.72437332,220.8572 L167.47139764,220.8572 L167.47139764,233.5976 L170.21842196,233.5976 L170.21842196,227.2274 L172.96544628,227.2274 L172.96544628,227.2274 L175.7124706,227.2274 L175.7124706,227.2274 L178.45949492,227.2274 L178.45949492,233.5976 L181.206792848,233.5976 L181.206792848,246.338 L183.953817168,246.338 L183.953817168,233.5976 L186.700841488,233.5976 L186.700841488,233.5976 L189.447865808,233.5976 L189.447865808,239.9678 L192.194890128,239.9678 L192.194890128,239.9678 L194.941914448,239.9678 L194.941914448,239.9678 L197.689212376,239.9678 L197.689212376,233.5976 L200.436236696,233.5976 L200.436236696,239.9678 L203.183261016,239.9678 L203.183261016,233.5976 L205.930285336,233.5976 L205.930285336,233.5976 L208.677309656,233.5976 L208.677309656,239.9678 L211.424333976,239.9678 L211.424333976,246.338 L214.171631904,246.338 L214.171631904,239.9678 L216.918656224,239.9678 L216.918656224,233.5976 L219.665680544,233.5976 L219.665680544,233.5976 L222.412704864,233.5976 L222.412704864,233.5976 L225.159729184,233.5976 L225.159729184,233.5976 L227.906753504,233.5976 L227.906753504,239.9678 L230.654051432,239.9678 L230.654051432,233.5976 L233.401075752,233.5976 L233.401075752,239.9678 L236.148100072,239.9678 L236.148100072,233.5976 L238.895124392,233.5976 L238.895124392,233.5976 L241.642148712,233.5976 L241.642148712,227.2274 L244.389173032,227.2274 L244.389173032,239.9678 L247.136197352,239.9678 L247.136197352,246.338 L249.88349528,246.338 L249.88349528,246.338 L252.6305196,246.338 L252.6305196,246.338 L255.37754392,246.338 L255.37754392,227.2274 L258.12456824,227.2274 L258.12456824,220.8572 L260.87159256,220.8572 L260.87159256,239.9678 L263.61861688,239.9678 L263.61861688,246.338 L266.365914808,246.338 L266.365914808,233.5976 L269.112939128,233.5976 L269.112939128,227.2274 L271.859963448,227.2274 L271.859963448,239.9678 L274.606987768,239.9678 L274.606987768,239.9678 L277.354012088,239.9678 L277.354012088,239.9678 L280.101036408,239.9678 L280.101036408,233.5976 L282.848334336,233.5976 L282.848334336,227.2274 L285.595358656,227.2274 L285.595358656,239.9678 L288.342382976,239.9678 L288.342382976,246.338 L291.089407296,246.338 L291.089407296,233.5976 L293.836431616,233.5976 L293.836431616,246.338 L296.583455936,246.338 L296.583455936,239.9678 L299.330753864,239.9678 L299.330753864,220.8572 L302.077778184,220.8572 L302.077778184,239.9678 L304.824802504,239.9678 L304.824802504,246.338 L307.571826824,246.338 L307.571826824,227.2274 L310.318851144,227.2274 L310.318851144,239.9678 L313.065875464,239.9678 L313.065875464,246.338 L315.812899784,246.338 L315.812899784,214.487 L318.560197712,214.487 L318.560197712,239.9678 L321.307222032,239.9678 L321.307222032,239.9678 L324.054246352,239.9678 L324.054246352,227.2274 L326.801270672,227.2274 L326.801270672,239.9678 L329.548294992,239.9678 L329.548294992,246.338 L332.295319312,246.338 L332.295319312,246.338 L335.04261724,246.338 L335.04261724,233.5976 L337.78964156,233.5976 L337.78964156,239.9678 L340.53666588,239.9678 L340.53666588,239.9678 L343.2836902,239.9678 L343.2836902,239.9678 L346.03071452,239.9678 L346.03071452,246.338 L348.77773884,246.338 L348.77773884,233.5976 L351.525036768,233.5976 L351.525036768,246.338 L354.272061088,246.338 L354.272061088,239.9678 L357.019085408,239.9678 L357.019085408,233.5976 L359.76720416,233.5976 L359.76720416,227.2274 L362.51422848,227.2274 L362.51422848,239.9678 L365.2612528,239.9678 L365.2612528,246.338 L368.00827712,246.338 L368.00827712,48.8618 L370.75530144,48.8618 L370.75530144,157.1552 L373.50232576,157.1552 L373.50232576,239.9678 L376.24935008,239.9678 L376.24935008,239.9678 L378.9963744,239.9678 L378.9963744,246.338 L381.74339872,246.338 L381.74339872,246.338 L384.49042304,246.338 L384.49042304,239.9678 L387.23744736,239.9678 L387.23744736,220.8572 L389.98447168,220.8572 L389.98447168,214.487 L392.731496,214.487 L392.731496,220.8572 L395.47852032,220.8572 L395.47852032,227.2274 L398.22554464,227.2274 L398.22554464,220.8572 L400.97256896,220.8572 L400.97256896,214.487 L403.71959328,214.487 L403.71959328,214.487 L406.4666176,214.487 L406.4666176,227.2274 L409.21364192,227.2274 L409.21364192,220.8572 L411.96066624,220.8572 L411.96066624,227.2274 L414.70769056,227.2274 L414.70769056,201.7466 L417.45471488,201.7466 L417.45471488,208.1168 L420.2017392,208.1168 L420.2017392,227.2274 L422.94876352,227.2274 L422.94876352,233.5976 L425.69578784,233.5976 L425.69578784,220.8572 L428.44281216,220.8572 L428.44281216,239.9678 L431.18983648,239.9678 L431.18983648,220.8572 L433.9368608,220.8572 L433.9368608,220.8572 L436.68388512,220.8572 L436.68388512,233.5976 L439.43090944,233.5976 L439.43090944,239.9678 L442.17793376,239.9678 L442.17793376,220.8572 L444.92495808,220.8572 L444.92495808,233.5976 L447.6719824,233.5976 L447.6719824,233.5976 L450.41900672,233.5976 L450.41900672,220.8572 L453.16603104,220.8572 L453.16603104,220.8572 L455.91305536,220.8572 L455.91305536,220.8572 L458.66007968,220.8572 L458.66007968,208.1168 L461.407104,208.1168 L461.407104,220.8572 L464.15412832,220.8572 L464.15412832,239.9678 L466.90115264,239.9678 L466.90115264,201.7466 L469.64817696,201.7466 L469.64817696,233.5976 L472.39520128,233.5976 L472.39520128,246.338 L475.1422256,246.338 L475.1422256,233.5976 L477.88924992,233.5976 L477.88924992,246.338 L480.63627424,246.338 L480.63627424,233.5976 L483.38329856,233.5976 L483.38329856,233.5976 L486.13032288,233.5976 L486.13032288,195.3764 L488.8773472,195.3764 L488.8773472,233.5976 L491.62437152,233.5976 L491.62437152,214.487 L494.37139584,214.487 L494.37139584,227.2274 L497.11842016,227.2274 L497.11842016,227.2274 L499.86544448,227.2274 L499.86544448,233.5976 L502.6124688,233.5976 L502.6124688,227.2274 L505.35949312,227.2274 L505.35949312,239.9678 L508.10651744,239.9678 L508.10651744,239.9678 L510.85354176,239.9678 L510.85354176,227.2274 L513.60330216,227.2274 L513.60330216,214.487 L516.35032648,214.487 L516.35032648,246.338 L519.0973508,246.338 L519.0973508,246.338 L521.84437512,246.338 L521.84437512,214.487 L524.59139944,214.487 L524.59139944,220.8572 L527.33842376,220.8572 L527.33842376,227.2274 L530.08544808,227.2274 L530.08544808,227.2274 L532.8324724,227.2274 L532.8324724,233.5976 L535.57949672,233.5976 L535.57949672,220.8572 L538.32652104,220.8572 L538.32652104,227.2274 L541.07354536,227.2274 L541.07354536,227.2274 L543.82056968,227.2274 L543.82056968,227.2274 L546.567594,227.2274 L546.567594,227.2274 L549.31461832,227.2274 L549.31461832,227.2274 L552.06164264,227.2274 L552.06164264,227.2274 L554.80866696,227.2274 L554.80866696,227.2274 L557.55569128,227.2274 L557.55569128,239.9678 L560.3027156,239.9678 L560.3027156,227.2274 L563.04973992,227.2274 L563.04973992,239.9678 L565.79676424,239.9678 L565.79676424,233.5976 L568.54378856,233.5976 L568.54378856,201.7466 L571.29081288,201.7466 L571.29081288,233.5976 L574.0378372,233.5976 L574.0378372,233.5976 L576.78486152,233.5976 L576.78486152,227.2274 L579.53188584,227.2274 L579.53188584,227.2274 L582.27891016,227.2274 L582.27891016,233.5976 L585.02593448,233.5976 L585.02593448,239.9678 L587.7729588,239.9678 L587.7729588,208.1168 L590.51998312,208.1168 L590.51998312,201.7466 L593.26700744,201.7466 L593.26700744,239.9678 L596.01403176,239.9678 L596.01403176,220.8572 L598.76105608,220.8572 L598.76105608,233.5976 L601.5080804,233.5976 L601.5080804,246.338 L604.25510472,246.338 L604.25510472,227.2274 L607.00212904,227.2274 L607.00212904,239.9678 L609.74915336,239.9678 L609.74915336,233.5976 L612.49617768,233.5976 L612.49617768,208.1168 L615.243202,208.1168 L615.243202,239.9678 L617.99022632,239.9678 L617.99022632,208.1168 L620.73725064,208.1168 L620.73725064,220.8572 L623.48427496,220.8572 L623.48427496,214.487 L626.23129928,214.487 L626.23129928,233.5976 L628.9783236,233.5976 L628.9783236,233.5976 L631.72534792,233.5976 L631.72534792,233.5976 L634.47237224,233.5976 L634.47237224,246.338 L637.21939656,246.338 L637.21939656,239.9678 L639.96642088,239.9678 L639.96642088,239.9678 L642.7134452,239.9678 L642.7134452,246.338 L645.46046952,246.338 L645.46046952,246.338 L648.20749384,246.338 L648.20749384,246.338 L650.95451816,246.338 L650.95451816,246.338 L653.70154248,246.338 L653.70154248,246.338 L656.4485668,246.338 L656.4485668,246.338 L659.19559112,246.338 L659.19559112,246.338 L661.94261544,246.338 L661.94261544,246.338 L664.68963976,246.338 L664.68963976,246.338 L667.43666408,246.338 L667.43666408,246.338 L670.1836884,246.338 L670.1836884,246.338 L672.93071272,246.338 L672.93071272,246.338 L675.67773704,246.338 L675.67773704,246.338 L678.42476136,246.338 L678.42476136,246.338 L681.17178568,246.338 L681.17178568,246.338 L683.92154608,246.338 L683.92154608,246.338 L686.6685704,246.338 L686.6685704,246.338 L689.41559472,246.338 L689.41559472,246.338 L692.16261904,246.338 L692.16261904,246.338 L694.90964336,246.338 L694.90964336,246.338 L697.65666768,246.338 L697.65666768,239.9678 L700.403692,239.9678 L700.403692,246.338 L703.15071632,246.338 L703.15071632,246.338 L705.89774064,246.338 L705.89774064,246.338 L708.64476496,246.338 L708.64476496,246.338 L711.39178928,246.338 L711.39178928,246.338 L714.1388136,246.338 L714.1388136,246.338 L716.88583792,246.338 L716.88583792,246.338 L719.63286224,246.338 L719.63286224,246.338 L722.37988656,246.338 L722.37988656,246.338 L725.12691088,246.338 L725.12691088,246.338 L727.8739352,246.338 L727.8739352,246.338 L730.62095952,246.338 L730.62095952,246.338 L733.36798384,246.338 L733.36798384,239.9678 L736.11500816,239.9678 L736.11500816,227.2274 L738.86203248,227.2274 L738.86203248,246.338 L741.6090568,246.338 L741.6090568,246.338 L744.35608112,246.338 L744.35608112,239.9678 L747.10310544,239.9678 L747.10310544,246.338 L749.85012976,246.338 L749.85012976,246.338 L752.59715408,246.338 L752.59715408,233.5976 L755.3441784,233.5976 L755.3441784,246.338 L758.09120272,246.338 L758.09120272,239.9678 L760.83822704,239.9678 L760.83822704,239.9678 L763.58525136,239.9678 L763.58525136,239.9678 L766.33227568,239.9678 L766.33227568,246.338 L769.0793,246.338 L769.0793,246.338 " fill-rule="evenodd" vector-effect="non-scaling-stroke"/>
                            </g>
                        </g>
                    </g>
                </g>
            </g>
            <g fill="none" fill-rule="evenodd" id="LabelItem_1" stroke="black" stroke-linecap="square" stroke-linejoin="bevel" stroke-width="1">
                <g fill="none" fill-rule="evenodd" id="QGraphicsTextItem_3" stroke="black" stroke-linecap="square" stroke-linejoin="bevel" stroke-width="1">
                    


                    <g fill="none" font-family=".Helvetica Neue DeskInterface" font-size="13" font-style="normal" font-weight="400" stroke="#000000" stroke-linecap="square" stroke-linejoin="bevel" stroke-opacity="1" stroke-width="1" transform="matrix(1,0,0,1,392.85,10.5)">
                        <text fill="#000000" fill-opacity="1" font-family="&quot;.Helvetica Neue DeskInterface&quot;, sans-serif" font-size="11" font-style="normal" font-weight="400" stroke="none" x="4" xml:space="preserve" y="12.4688">VCN Cell 18</text>
                    </g>
                    


                    

                </g>
            </g>
            <g fill="none" fill-rule="evenodd" id="LabelItem_2" stroke="black" stroke-linecap="square" stroke-linejoin="bevel" stroke-width="1">
                <g fill="none" fill-rule="evenodd" id="QGraphicsTextItem_4" stroke="black" stroke-linecap="square" stroke-linejoin="bevel" stroke-width="1">
                    


                    <g fill="none" font-family=".Helvetica Neue DeskInterface" font-size="13" font-style="normal" font-weight="400" stroke="#000000" stroke-linecap="square" stroke-linejoin="bevel" stroke-opacity="1" stroke-width="1" transform="matrix(1,0,0,1,23.0142,9)">
                        <text fill="#000000" fill-opacity="1" font-family="&quot;.Helvetica Neue DeskInterface&quot;, sans-serif" font-size="14" font-style="normal" font-weight="700" stroke="none" x="4" xml:space="preserve" y="14.7656">A</text>
                    </g>
                    


                    

                </g>
            </g>
        </g>
        <g fill="none" fill-rule="evenodd" id="PlotItem_2" stroke="black" stroke-linecap="square" stroke-linejoin="bevel" stroke-width="1">
            <g fill="none" fill-rule="evenodd" id="AxisItem_3" stroke="black" stroke-linecap="square" stroke-linejoin="bevel" stroke-width="1">
                <g fill="none" font-family=".Helvetica Neue DeskInterface" font-size="13" font-style="normal" font-weight="400" stroke="#000000" stroke-linecap="square" stroke-linejoin="bevel" stroke-opacity="1" stroke-width="1">
                    <polyline fill="none" points="58.5667,558.2 794.9997,558.2" vector-effect="non-scaling-stroke"/>
                </g>
                <g fill="none" font-family=".Helvetica Neue DeskInterface" font-size="13" font-style="normal" font-weight="400" stroke="#000000" stroke-linecap="square" stroke-linejoin="bevel" stroke-opacity="1" stroke-width="1">
                    <polyline fill="none" points="84.9987,558.2 84.9987,553.2" vector-effect="non-scaling-stroke"/>
                    <polyline fill="none" points="632.6537,558.2 632.6537,553.2" vector-effect="non-scaling-stroke"/>
                </g>
                <g fill="none" font-family=".Helvetica Neue DeskInterface" font-size="13" font-style="normal" font-weight="400" stroke="#000000" stroke-linecap="square" stroke-linejoin="bevel" stroke-opacity="0.498039" stroke-width="1">
                    <polyline fill="none" points="358.8267,558.2 358.8267,554.86667" vector-effect="non-scaling-stroke"/>
                </g>
                <g fill="none" font-family=".Helvetica Neue DeskInterface" font-size="13" font-style="normal" font-weight="400" stroke="#000000" stroke-linecap="square" stroke-linejoin="bevel" stroke-opacity="0.333333" stroke-width="1">
                    <polyline fill="none" points="139.7642,558.2 139.7642,555.7" vector-effect="non-scaling-stroke"/>
                    <polyline fill="none" points="194.5297,558.2 194.5297,555.7" vector-effect="non-scaling-stroke"/>
                    <polyline fill="none" points="249.2957,558.2 249.2957,555.7" vector-effect="non-scaling-stroke"/>
                    <polyline fill="none" points="304.0607,558.2 304.0607,555.7" vector-effect="non-scaling-stroke"/>
                    <polyline fill="none" points="413.5917,558.2 413.5917,555.7" vector-effect="non-scaling-stroke"/>
                    <polyline fill="none" points="468.3577,558.2 468.3577,555.7" vector-effect="non-scaling-stroke"/>
                    <polyline fill="none" points="523.1227,558.2 523.1227,555.7" vector-effect="non-scaling-stroke"/>
                    <polyline fill="none" points="577.8887,558.2 577.8887,555.7" vector-effect="non-scaling-stroke"/>
                    <polyline fill="none" points="687.4197,558.2 687.4197,555.7" vector-effect="non-scaling-stroke"/>
                    <polyline fill="none" points="742.1857,558.2 742.1857,555.7" vector-effect="non-scaling-stroke"/>
                </g>
                <g fill="none" font-family=".Helvetica Neue DeskInterface" font-size="13" font-style="normal" font-weight="400" stroke="#000000" stroke-linecap="square" stroke-linejoin="bevel" stroke-opacity="1" stroke-width="1" transform="matrix(1,0,0,1,59.0667,558.2)">
                    <text fill="#000000" fill-opacity="1" font-family="&quot;.Helvetica Neue DeskInterface&quot;, sans-serif" font-size="13" font-style="normal" font-weight="400" stroke="none" x="22.3125" xml:space="preserve" y="11">0</text>
                    <text fill="#000000" fill-opacity="1" font-family="&quot;.Helvetica Neue DeskInterface&quot;, sans-serif" font-size="13" font-style="normal" font-weight="400" stroke="none" x="562.75" xml:space="preserve" y="11">200</text>
                    <text fill="#000000" fill-opacity="1" font-family="&quot;.Helvetica Neue DeskInterface&quot;, sans-serif" font-size="13" font-style="normal" font-weight="400" stroke="none" x="288.922" xml:space="preserve" y="11">100</text>
                    <text fill="#000000" fill-opacity="1" font-family="&quot;.Helvetica Neue DeskInterface&quot;, sans-serif" font-size="13" font-style="normal" font-weight="400" stroke="none" x="73.4688" xml:space="preserve" y="11">20</text>
                    <text fill="#000000" fill-opacity="1" font-family="&quot;.Helvetica Neue DeskInterface&quot;, sans-serif" font-size="13" font-style="normal" font-weight="400" stroke="none" x="128.234" xml:space="preserve" y="11">40</text>
                    <text fill="#000000" fill-opacity="1" font-family="&quot;.Helvetica Neue DeskInterface&quot;, sans-serif" font-size="13" font-style="normal" font-weight="400" stroke="none" x="183" xml:space="preserve" y="11">60</text>
                    <text fill="#000000" fill-opacity="1" font-family="&quot;.Helvetica Neue DeskInterface&quot;, sans-serif" font-size="13" font-style="normal" font-weight="400" stroke="none" x="237.766" xml:space="preserve" y="11">80</text>
                    <text fill="#000000" fill-opacity="1" font-family="&quot;.Helvetica Neue DeskInterface&quot;, sans-serif" font-size="13" font-style="normal" font-weight="400" stroke="none" x="343.688" xml:space="preserve" y="11">120</text>
                    <text fill="#000000" fill-opacity="1" font-family="&quot;.Helvetica Neue DeskInterface&quot;, sans-serif" font-size="13" font-style="normal" font-weight="400" stroke="none" x="398.453" xml:space="preserve" y="11">140</text>
                    <text fill="#000000" fill-opacity="1" font-family="&quot;.Helvetica Neue DeskInterface&quot;, sans-serif" font-size="13" font-style="normal" font-weight="400" stroke="none" x="453.219" xml:space="preserve" y="11">160</text>
                    <text fill="#000000" fill-opacity="1" font-family="&quot;.Helvetica Neue DeskInterface&quot;, sans-serif" font-size="13" font-style="normal" font-weight="400" stroke="none" x="507.984" xml:space="preserve" y="11">180</text>
                    <text fill="#000000" fill-opacity="1" font-family="&quot;.Helvetica Neue DeskInterface&quot;, sans-serif" font-size="13" font-style="normal" font-weight="400" stroke="none" x="617.516" xml:space="preserve" y="11">220</text>
                    <text fill="#000000" fill-opacity="1" font-family="&quot;.Helvetica Neue DeskInterface&quot;, sans-serif" font-size="13" font-style="normal" font-weight="400" stroke="none" x="672.281" xml:space="preserve" y="11">240</text>
                </g>
                <g fill="none" fill-rule="evenodd" id="QGraphicsTextItem_5" stroke="black" stroke-linecap="square" stroke-linejoin="bevel" stroke-width="1">
                    


                    <g fill="none" font-family=".Helvetica Neue DeskInterface" font-size="13" font-style="normal" font-weight="400" stroke="#000000" stroke-linecap="square" stroke-linejoin="bevel" stroke-opacity="1" stroke-width="1" transform="matrix(1,0,0,1,408.567,578.2)">
                        <text fill="#000000" fill-opacity="1" font-family="&quot;.Helvetica Neue DeskInterface&quot;, sans-serif" font-size="13" font-style="normal" font-weight="400" stroke="none" x="4" xml:space="preserve" y="14">T(s) </text>
                    </g>
                    


                    

                </g>
            </g>
            <g fill="none" fill-rule="evenodd" id="AxisItem_4" stroke="black" stroke-linecap="square" stroke-linejoin="bevel" stroke-width="1">
                <g fill="none" font-family=".Helvetica Neue DeskInterface" font-size="13" font-style="normal" font-weight="400" stroke="#000000" stroke-linecap="square" stroke-linejoin="bevel" stroke-opacity="1" stroke-width="1">
                    <polyline fill="none" points="56.8,333.0 56.8,558.2" vector-effect="non-scaling-stroke"/>
                </g>
                <g fill="none" font-family=".Helvetica Neue DeskInterface" font-size="13" font-style="normal" font-weight="400" stroke="#000000" stroke-linecap="square" stroke-linejoin="bevel" stroke-opacity="1" stroke-width="1">
                    <polyline fill="none" points="57.3,544.338 62.3,544.338" vector-effect="non-scaling-stroke"/>
                </g>
                <g fill="none" font-family=".Helvetica Neue DeskInterface" font-size="13" font-style="normal" font-weight="400" stroke="#000000" stroke-linecap="square" stroke-linejoin="bevel" stroke-opacity="0.498039" stroke-width="1">
                    <polyline fill="none" points="57.3,480.636 60.6333,480.636" vector-effect="non-scaling-stroke"/>
                    <polyline fill="none" points="57.3,416.9341 60.6333,416.9341" vector-effect="non-scaling-stroke"/>
                    <polyline fill="none" points="57.3,353.2322 60.6333,353.2322" vector-effect="non-scaling-stroke"/>
                </g>
                <g fill="none" font-family=".Helvetica Neue DeskInterface" font-size="13" font-style="normal" font-weight="400" stroke="#000000" stroke-linecap="square" stroke-linejoin="bevel" stroke-opacity="0.333333" stroke-width="1">
                    <polyline fill="none" points="57.3,512.487 59.8,512.487" vector-effect="non-scaling-stroke"/>
                    <polyline fill="none" points="57.3,448.785 59.8,448.785" vector-effect="non-scaling-stroke"/>
                    <polyline fill="none" points="57.3,385.0832 59.8,385.0832" vector-effect="non-scaling-stroke"/>
                </g>
                <g fill="none" font-family=".Helvetica Neue DeskInterface" font-size="13" font-style="normal" font-weight="400" stroke="#000000" stroke-linecap="square" stroke-linejoin="bevel" stroke-opacity="1" stroke-width="1" transform="matrix(1,0,0,1,5.5,333)">
                    <text fill="#000000" fill-opacity="1" font-family="&quot;.Helvetica Neue DeskInterface&quot;, sans-serif" font-size="13" font-style="normal" font-weight="400" stroke="none" x="39.5781" xml:space="preserve" y="215.125">0</text>
                    <text fill="#000000" fill-opacity="1" font-family="&quot;.Helvetica Neue DeskInterface&quot;, sans-serif" font-size="13" font-style="normal" font-weight="400" stroke="none" x="25.1406" xml:space="preserve" y="151.422">200</text>
                    <text fill="#000000" fill-opacity="1" font-family="&quot;.Helvetica Neue DeskInterface&quot;, sans-serif" font-size="13" font-style="normal" font-weight="400" stroke="none" x="25.1406" xml:space="preserve" y="87.7188">400</text>
                    <text fill="#000000" fill-opacity="1" font-family="&quot;.Helvetica Neue DeskInterface&quot;, sans-serif" font-size="13" font-style="normal" font-weight="400" stroke="none" x="25.1406" xml:space="preserve" y="24.0312">600</text>
                    <text fill="#000000" fill-opacity="1" font-family="&quot;.Helvetica Neue DeskInterface&quot;, sans-serif" font-size="13" font-style="normal" font-weight="400" stroke="none" x="25.1406" xml:space="preserve" y="183.281">100</text>
                    <text fill="#000000" fill-opacity="1" font-family="&quot;.Helvetica Neue DeskInterface&quot;, sans-serif" font-size="13" font-style="normal" font-weight="400" stroke="none" x="25.1406" xml:space="preserve" y="119.578">300</text>
                    <text fill="#000000" fill-opacity="1" font-family="&quot;.Helvetica Neue DeskInterface&quot;, sans-serif" font-size="13" font-style="normal" font-weight="400" stroke="none" x="25.1406" xml:space="preserve" y="55.875">500</text>
                </g>
                <g fill="none" fill-rule="evenodd" id="QGraphicsTextItem_6" stroke="black" stroke-linecap="square" stroke-linejoin="bevel" stroke-width="1">
                    


                    <g fill="none" font-family=".Helvetica Neue DeskInterface" font-size="13" font-style="normal" font-weight="400" stroke="#000000" stroke-linecap="square" stroke-linejoin="bevel" stroke-opacity="1" stroke-width="1" transform="matrix(0,-1,1,0,0,522)">
                        <text fill="#000000" fill-opacity="1" font-family="&quot;.Helvetica Neue DeskInterface&quot;, sans-serif" font-size="13" font-style="normal" font-weight="400" stroke="none" x="4" xml:space="preserve" y="14">spikes/sec (1 msec bins) </text>
                    </g>
                    


                    

                </g>
            </g>
            <g fill="none" fill-rule="evenodd" id="ViewBox_2" stroke="black" stroke-linecap="square" stroke-linejoin="bevel" stroke-width="1">
                <g fill="none" font-family=".Helvetica Neue DeskInterface" font-size="13" font-style="normal" font-weight="400" stroke="none">
                    <path d="M58.5667,333.0 L794.9997,333.0 L794.9997,558.2 L58.5667,558.2 L58.5667,333.0 " fill-rule="evenodd" vector-effect="non-scaling-stroke"/>
                </g>
                <clipPath id="ViewBox_2_clip">
                    <path d="M58.5667,333.0 L795.0,333.0 L795.0,558.2 L58.5667,558.2 L58.5667,333.0 " fill-rule="evenodd" vector-effect="non-scaling-stroke"/>
                </clipPath>
                <g clip-path="url(#ViewBox_2_clip)">
                    <g fill="none" fill-rule="evenodd" id="ChildGroup_2" stroke="black" stroke-linecap="square" stroke-linejoin="bevel" stroke-width="1">
                        <g fill="none" fill-rule="evenodd" id="PlotCurveItem_2" stroke="black" stroke-linecap="square" stroke-linejoin="bevel" stroke-width="1">
                            <g fill="#000000" fill-opacity="1" font-family=".Helvetica Neue DeskInterface" font-size="13" font-style="normal" font-weight="400" stroke="none">
                                <path d="M84.4987,544.338 L84.4987,531.5976 L87.2479878856,531.5976 L87.2479878856,531.5976 L89.9972483884,531.5976 L89.9972483884,537.9678 L92.746536274,537.9678 L92.746536274,525.2274 L95.4957967768,525.2274 L95.4957967768,512.487 L98.2450846624,512.487 L98.2450846624,525.2274 L100.994372548,525.2274 L100.994372548,512.487 L103.743633051,512.487 L103.743633051,525.2274 L106.492920936,525.2274 L106.492920936,512.487 L109.242181439,512.487 L109.242181439,512.487 L111.991578856,512.487 L111.991578856,525.2274 L114.740811976,525.2274 L114.740811976,518.8572 L117.490045096,518.8572 L117.490045096,537.9678 L120.239278216,537.9678 L120.239278216,525.2274 L122.988511336,525.2274 L122.988511336,480.636 L125.737744456,480.636 L125.737744456,480.636 L128.487251404,480.636 L128.487251404,512.487 L131.236484524,512.487 L131.236484524,512.487 L133.985717644,512.487 L133.985717644,499.7466 L136.734950764,499.7466 L136.734950764,525.2274 L139.484183884,525.2274 L139.484183884,537.9678 L142.233417004,537.9678 L142.233417004,518.8572 L144.982923952,518.8572 L144.982923952,525.2274 L147.732157072,525.2274 L147.732157072,518.8572 L150.481390192,518.8572 L150.481390192,518.8572 L153.230623312,518.8572 L153.230623312,512.487 L155.979856432,512.487 L155.979856432,537.9678 L158.729089552,537.9678 L158.729089552,512.487 L161.478322672,512.487 L161.478322672,499.7466 L164.22782962,499.7466 L164.22782962,525.2274 L166.97706274,525.2274 L166.97706274,506.1168 L169.72629586,506.1168 L169.72629586,506.1168 L172.47552898,506.1168 L172.47552898,512.487 L175.2247621,512.487 L175.2247621,525.2274 L177.97399522,525.2274 L177.97399522,531.5976 L180.723502168,531.5976 L180.723502168,512.487 L183.472735288,512.487 L183.472735288,499.7466 L186.221968408,499.7466 L186.221968408,544.338 L188.971201528,544.338 L188.971201528,525.2274 L191.720434648,525.2274 L191.720434648,512.487 L194.469667768,512.487 L194.469667768,531.5976 L197.219174716,531.5976 L197.219174716,531.5976 L199.968407836,531.5976 L199.968407836,499.7466 L202.717640956,499.7466 L202.717640956,506.1168 L205.466874076,506.1168 L205.466874076,537.9678 L208.216107196,537.9678 L208.216107196,518.8572 L210.965340316,518.8572 L210.965340316,525.2274 L213.714847264,525.2274 L213.714847264,518.8572 L216.464080384,518.8572 L216.464080384,512.487 L219.213313504,512.487 L219.213313504,493.3764 L221.962546624,493.3764 L221.962546624,525.2274 L224.711779744,525.2274 L224.711779744,518.8572 L227.461012864,518.8572 L227.461012864,531.5976 L230.210519812,531.5976 L230.210519812,525.2274 L232.959752932,525.2274 L232.959752932,512.487 L235.708986052,512.487 L235.708986052,506.1168 L238.458219172,506.1168 L238.458219172,512.487 L241.207452292,512.487 L241.207452292,525.2274 L243.956685412,525.2274 L243.956685412,531.5976 L246.705918532,531.5976 L246.705918532,531.5976 L249.45542548,531.5976 L249.45542548,512.487 L252.2046586,512.487 L252.2046586,518.8572 L254.95389172,518.8572 L254.95389172,506.1168 L257.70312484,506.1168 L257.70312484,518.8572 L260.45235796,518.8572 L260.45235796,525.2274 L263.20159108,525.2274 L263.20159108,499.7466 L265.951098028,499.7466 L265.951098028,525.2274 L268.700331148,525.2274 L268.700331148,518.8572 L271.449564268,518.8572 L271.449564268,525.2274 L274.198797388,525.2274 L274.198797388,512.487 L276.948030508,512.487 L276.948030508,512.487 L279.697263628,512.487 L279.697263628,512.487 L282.446770576,512.487 L282.446770576,537.9678 L285.196003696,537.9678 L285.196003696,525.2274 L287.945236816,525.2274 L287.945236816,537.9678 L290.694469936,537.9678 L290.694469936,518.8572 L293.443703056,518.8572 L293.443703056,499.7466 L296.192936176,499.7466 L296.192936176,499.7466 L298.942443124,499.7466 L298.942443124,525.2274 L301.691676244,525.2274 L301.691676244,525.2274 L304.440909364,525.2274 L304.440909364,506.1168 L307.190142484,506.1168 L307.190142484,518.8572 L309.939375604,518.8572 L309.939375604,506.1168 L312.688608724,506.1168 L312.688608724,518.8572 L315.437841844,518.8572 L315.437841844,537.9678 L318.187348792,537.9678 L318.187348792,518.8572 L320.936581912,518.8572 L320.936581912,531.5976 L323.685815032,531.5976 L323.685815032,531.5976 L326.435048152,531.5976 L326.435048152,531.5976 L329.184281272,531.5976 L329.184281272,518.8572 L331.933514392,518.8572 L331.933514392,518.8572 L334.68302134,518.8572 L334.68302134,525.2274 L337.43225446,525.2274 L337.43225446,512.487 L340.18148758,512.487 L340.18148758,506.1168 L342.9307207,506.1168 L342.9307207,506.1168 L345.67995382,506.1168 L345.67995382,518.8572 L348.42918694,518.8572 L348.42918694,525.2274 L351.178693888,525.2274 L351.178693888,518.8572 L353.927927008,518.8572 L353.927927008,537.9678 L356.677160128,537.9678 L356.677160128,499.7466 L359.42748856,499.7466 L359.42748856,531.5976 L362.17672168,531.5976 L362.17672168,537.9678 L364.9259548,537.9678 L364.9259548,378.7128 L367.67518792,378.7128 L367.67518792,346.8618 L370.42442104,346.8618 L370.42442104,448.785 L373.17365416,448.785 L373.17365416,480.636 L375.92288728,480.636 L375.92288728,467.8956 L378.6721204,467.8956 L378.6721204,442.4148 L381.42135352,442.4148 L381.42135352,499.7466 L384.17058664,499.7466 L384.17058664,442.4148 L386.91981976,442.4148 L386.91981976,499.7466 L389.66905288,499.7466 L389.66905288,467.8956 L392.418286,467.8956 L392.418286,474.2658 L395.16751912,474.2658 L395.16751912,423.3042 L397.91675224,423.3042 L397.91675224,480.636 L400.66598536,480.636 L400.66598536,467.8956 L403.41521848,467.8956 L403.41521848,474.2658 L406.1644516,474.2658 L406.1644516,480.636 L408.91368472,480.636 L408.91368472,442.4148 L411.66291784,442.4148 L411.66291784,480.636 L414.41215096,480.636 L414.41215096,467.8956 L417.16138408,467.8956 L417.16138408,442.4148 L419.9106172,442.4148 L419.9106172,499.7466 L422.65985032,499.7466 L422.65985032,467.8956 L425.40908344,467.8956 L425.40908344,461.5254 L428.15831656,461.5254 L428.15831656,461.5254 L430.90754968,461.5254 L430.90754968,487.0062 L433.6567828,487.0062 L433.6567828,487.0062 L436.40601592,487.0062 L436.40601592,461.5254 L439.15524904,461.5254 L439.15524904,474.2658 L441.90448216,474.2658 L441.90448216,487.0062 L444.65371528,487.0062 L444.65371528,499.7466 L447.4029484,499.7466 L447.4029484,474.2658 L450.15218152,474.2658 L450.15218152,467.8956 L452.90141464,467.8956 L452.90141464,499.7466 L455.65064776,499.7466 L455.65064776,429.6744 L458.39988088,429.6744 L458.39988088,480.636 L461.149114,480.636 L461.149114,455.1552 L463.89834712,455.1552 L463.89834712,474.2658 L466.64758024,474.2658 L466.64758024,474.2658 L469.39681336,474.2658 L469.39681336,474.2658 L472.14604648,474.2658 L472.14604648,455.1552 L474.8952796,455.1552 L474.8952796,518.8572 L477.64451272,518.8572 L477.64451272,480.636 L480.39374584,480.636 L480.39374584,474.2658 L483.14297896,474.2658 L483.14297896,474.2658 L485.89221208,474.2658 L485.89221208,487.0062 L488.6414452,487.0062 L488.6414452,467.8956 L491.39067832,467.8956 L491.39067832,499.7466 L494.13991144,499.7466 L494.13991144,474.2658 L496.88914456,474.2658 L496.88914456,480.636 L499.63837768,480.636 L499.63837768,455.1552 L502.3876108,455.1552 L502.3876108,493.3764 L505.13684392,493.3764 L505.13684392,474.2658 L507.88607704,474.2658 L507.88607704,499.7466 L510.63531016,499.7466 L510.63531016,448.785 L513.38728156,448.785 L513.38728156,487.0062 L516.13651468,487.0062 L516.13651468,493.3764 L518.8857478,493.3764 L518.8857478,487.0062 L521.63498092,487.0062 L521.63498092,474.2658 L524.38421404,474.2658 L524.38421404,493.3764 L527.13344716,493.3764 L527.13344716,455.1552 L529.88268028,455.1552 L529.88268028,499.7466 L532.6319134,499.7466 L532.6319134,480.636 L535.38114652,480.636 L535.38114652,480.636 L538.13037964,480.636 L538.13037964,480.636 L540.87961276,480.636 L540.87961276,487.0062 L543.62884588,487.0062 L543.62884588,493.3764 L546.378079,493.3764 L546.378079,455.1552 L549.12731212,455.1552 L549.12731212,467.8956 L551.87654524,467.8956 L551.87654524,467.8956 L554.62577836,467.8956 L554.62577836,499.7466 L557.37501148,499.7466 L557.37501148,461.5254 L560.1242446,461.5254 L560.1242446,467.8956 L562.87347772,467.8956 L562.87347772,499.7466 L565.62271084,499.7466 L565.62271084,474.2658 L568.37194396,474.2658 L568.37194396,455.1552 L571.12117708,455.1552 L571.12117708,461.5254 L573.8704102,461.5254 L573.8704102,506.1168 L576.61964332,506.1168 L576.61964332,455.1552 L579.36887644,455.1552 L579.36887644,499.7466 L582.11810956,499.7466 L582.11810956,487.0062 L584.86734268,487.0062 L584.86734268,474.2658 L587.6165758,474.2658 L587.6165758,493.3764 L590.36580892,493.3764 L590.36580892,455.1552 L593.11504204,455.1552 L593.11504204,499.7466 L595.86427516,499.7466 L595.86427516,518.8572 L598.61350828,518.8572 L598.61350828,499.7466 L601.3627414,499.7466 L601.3627414,480.636 L604.11197452,480.636 L604.11197452,506.1168 L606.86120764,506.1168 L606.86120764,461.5254 L609.61044076,461.5254 L609.61044076,487.0062 L612.35967388,487.0062 L612.35967388,461.5254 L615.108907,461.5254 L615.108907,474.2658 L617.85814012,474.2658 L617.85814012,455.1552 L620.60737324,455.1552 L620.60737324,480.636 L623.35660636,480.636 L623.35660636,493.3764 L626.10583948,493.3764 L626.10583948,487.0062 L628.8550726,487.0062 L628.8550726,506.1168 L631.60430572,506.1168 L631.60430572,499.7466 L634.35353884,499.7466 L634.35353884,506.1168 L637.10277196,506.1168 L637.10277196,518.8572 L639.85200508,518.8572 L639.85200508,544.338 L642.6012382,544.338 L642.6012382,544.338 L645.35047132,544.338 L645.35047132,544.338 L648.09970444,544.338 L648.09970444,544.338 L650.84893756,544.338 L650.84893756,544.338 L653.59817068,544.338 L653.59817068,544.338 L656.3474038,544.338 L656.3474038,537.9678 L659.09663692,537.9678 L659.09663692,544.338 L661.84587004,544.338 L661.84587004,544.338 L664.59510316,544.338 L664.59510316,537.9678 L667.34433628,537.9678 L667.34433628,544.338 L670.0935694,544.338 L670.0935694,544.338 L672.84280252,544.338 L672.84280252,537.9678 L675.59203564,537.9678 L675.59203564,544.338 L678.34126876,544.338 L678.34126876,544.338 L681.09050188,544.338 L681.09050188,537.9678 L683.84247328,537.9678 L683.84247328,544.338 L686.5917064,544.338 L686.5917064,537.9678 L689.34093952,537.9678 L689.34093952,537.9678 L692.09017264,537.9678 L692.09017264,537.9678 L694.83940576,537.9678 L694.83940576,537.9678 L697.58863888,537.9678 L697.58863888,544.338 L700.337872,544.338 L700.337872,531.5976 L703.08710512,531.5976 L703.08710512,531.5976 L705.83633824,531.5976 L705.83633824,537.9678 L708.58557136,537.9678 L708.58557136,544.338 L711.33480448,544.338 L711.33480448,537.9678 L714.0840376,537.9678 L714.0840376,537.9678 L716.83327072,537.9678 L716.83327072,537.9678 L719.58250384,537.9678 L719.58250384,531.5976 L722.33173696,531.5976 L722.33173696,537.9678 L725.08097008,537.9678 L725.08097008,531.5976 L727.8302032,531.5976 L727.8302032,537.9678 L730.57943632,537.9678 L730.57943632,537.9678 L733.32866944,537.9678 L733.32866944,525.2274 L736.07790256,525.2274 L736.07790256,537.9678 L738.82713568,537.9678 L738.82713568,537.9678 L741.5763688,537.9678 L741.5763688,537.9678 L744.32560192,537.9678 L744.32560192,537.9678 L747.07483504,537.9678 L747.07483504,518.8572 L749.82406816,518.8572 L749.82406816,525.2274 L752.57330128,525.2274 L752.57330128,531.5976 L755.3225344,531.5976 L755.3225344,531.5976 L758.07176752,531.5976 L758.07176752,531.5976 L760.82100064,531.5976 L760.82100064,537.9678 L763.57023376,537.9678 L763.57023376,537.9678 L766.31946688,537.9678 L766.31946688,518.8572 L769.0687,518.8572 L769.0687,544.338 L84.4987,544.338 L84.4987,531.5976 " fill-rule="evenodd" vector-effect="non-scaling-stroke"/>
                            </g>
                            <g fill="none" font-family=".Helvetica Neue DeskInterface" font-size="13" font-style="normal" font-weight="400" stroke="#ffffff" stroke-linecap="square" stroke-linejoin="bevel" stroke-opacity="1" stroke-width="1">
                                <path d="M84.4987,544.338 L84.4987,531.5976 L87.2479878856,531.5976 L87.2479878856,531.5976 L89.9972483884,531.5976 L89.9972483884,537.9678 L92.746536274,537.9678 L92.746536274,525.2274 L95.4957967768,525.2274 L95.4957967768,512.487 L98.2450846624,512.487 L98.2450846624,525.2274 L100.994372548,525.2274 L100.994372548,512.487 L103.743633051,512.487 L103.743633051,525.2274 L106.492920936,525.2274 L106.492920936,512.487 L109.242181439,512.487 L109.242181439,512.487 L111.991578856,512.487 L111.991578856,525.2274 L114.740811976,525.2274 L114.740811976,518.8572 L117.490045096,518.8572 L117.490045096,537.9678 L120.239278216,537.9678 L120.239278216,525.2274 L122.988511336,525.2274 L122.988511336,480.636 L125.737744456,480.636 L125.737744456,480.636 L128.487251404,480.636 L128.487251404,512.487 L131.236484524,512.487 L131.236484524,512.487 L133.985717644,512.487 L133.985717644,499.7466 L136.734950764,499.7466 L136.734950764,525.2274 L139.484183884,525.2274 L139.484183884,537.9678 L142.233417004,537.9678 L142.233417004,518.8572 L144.982923952,518.8572 L144.982923952,525.2274 L147.732157072,525.2274 L147.732157072,518.8572 L150.481390192,518.8572 L150.481390192,518.8572 L153.230623312,518.8572 L153.230623312,512.487 L155.979856432,512.487 L155.979856432,537.9678 L158.729089552,537.9678 L158.729089552,512.487 L161.478322672,512.487 L161.478322672,499.7466 L164.22782962,499.7466 L164.22782962,525.2274 L166.97706274,525.2274 L166.97706274,506.1168 L169.72629586,506.1168 L169.72629586,506.1168 L172.47552898,506.1168 L172.47552898,512.487 L175.2247621,512.487 L175.2247621,525.2274 L177.97399522,525.2274 L177.97399522,531.5976 L180.723502168,531.5976 L180.723502168,512.487 L183.472735288,512.487 L183.472735288,499.7466 L186.221968408,499.7466 L186.221968408,544.338 L188.971201528,544.338 L188.971201528,525.2274 L191.720434648,525.2274 L191.720434648,512.487 L194.469667768,512.487 L194.469667768,531.5976 L197.219174716,531.5976 L197.219174716,531.5976 L199.968407836,531.5976 L199.968407836,499.7466 L202.717640956,499.7466 L202.717640956,506.1168 L205.466874076,506.1168 L205.466874076,537.9678 L208.216107196,537.9678 L208.216107196,518.8572 L210.965340316,518.8572 L210.965340316,525.2274 L213.714847264,525.2274 L213.714847264,518.8572 L216.464080384,518.8572 L216.464080384,512.487 L219.213313504,512.487 L219.213313504,493.3764 L221.962546624,493.3764 L221.962546624,525.2274 L224.711779744,525.2274 L224.711779744,518.8572 L227.461012864,518.8572 L227.461012864,531.5976 L230.210519812,531.5976 L230.210519812,525.2274 L232.959752932,525.2274 L232.959752932,512.487 L235.708986052,512.487 L235.708986052,506.1168 L238.458219172,506.1168 L238.458219172,512.487 L241.207452292,512.487 L241.207452292,525.2274 L243.956685412,525.2274 L243.956685412,531.5976 L246.705918532,531.5976 L246.705918532,531.5976 L249.45542548,531.5976 L249.45542548,512.487 L252.2046586,512.487 L252.2046586,518.8572 L254.95389172,518.8572 L254.95389172,506.1168 L257.70312484,506.1168 L257.70312484,518.8572 L260.45235796,518.8572 L260.45235796,525.2274 L263.20159108,525.2274 L263.20159108,499.7466 L265.951098028,499.7466 L265.951098028,525.2274 L268.700331148,525.2274 L268.700331148,518.8572 L271.449564268,518.8572 L271.449564268,525.2274 L274.198797388,525.2274 L274.198797388,512.487 L276.948030508,512.487 L276.948030508,512.487 L279.697263628,512.487 L279.697263628,512.487 L282.446770576,512.487 L282.446770576,537.9678 L285.196003696,537.9678 L285.196003696,525.2274 L287.945236816,525.2274 L287.945236816,537.9678 L290.694469936,537.9678 L290.694469936,518.8572 L293.443703056,518.8572 L293.443703056,499.7466 L296.192936176,499.7466 L296.192936176,499.7466 L298.942443124,499.7466 L298.942443124,525.2274 L301.691676244,525.2274 L301.691676244,525.2274 L304.440909364,525.2274 L304.440909364,506.1168 L307.190142484,506.1168 L307.190142484,518.8572 L309.939375604,518.8572 L309.939375604,506.1168 L312.688608724,506.1168 L312.688608724,518.8572 L315.437841844,518.8572 L315.437841844,537.9678 L318.187348792,537.9678 L318.187348792,518.8572 L320.936581912,518.8572 L320.936581912,531.5976 L323.685815032,531.5976 L323.685815032,531.5976 L326.435048152,531.5976 L326.435048152,531.5976 L329.184281272,531.5976 L329.184281272,518.8572 L331.933514392,518.8572 L331.933514392,518.8572 L334.68302134,518.8572 L334.68302134,525.2274 L337.43225446,525.2274 L337.43225446,512.487 L340.18148758,512.487 L340.18148758,506.1168 L342.9307207,506.1168 L342.9307207,506.1168 L345.67995382,506.1168 L345.67995382,518.8572 L348.42918694,518.8572 L348.42918694,525.2274 L351.178693888,525.2274 L351.178693888,518.8572 L353.927927008,518.8572 L353.927927008,537.9678 L356.677160128,537.9678 L356.677160128,499.7466 L359.42748856,499.7466 L359.42748856,531.5976 L362.17672168,531.5976 L362.17672168,537.9678 L364.9259548,537.9678 L364.9259548,378.7128 L367.67518792,378.7128 L367.67518792,346.8618 L370.42442104,346.8618 L370.42442104,448.785 L373.17365416,448.785 L373.17365416,480.636 L375.92288728,480.636 L375.92288728,467.8956 L378.6721204,467.8956 L378.6721204,442.4148 L381.42135352,442.4148 L381.42135352,499.7466 L384.17058664,499.7466 L384.17058664,442.4148 L386.91981976,442.4148 L386.91981976,499.7466 L389.66905288,499.7466 L389.66905288,467.8956 L392.418286,467.8956 L392.418286,474.2658 L395.16751912,474.2658 L395.16751912,423.3042 L397.91675224,423.3042 L397.91675224,480.636 L400.66598536,480.636 L400.66598536,467.8956 L403.41521848,467.8956 L403.41521848,474.2658 L406.1644516,474.2658 L406.1644516,480.636 L408.91368472,480.636 L408.91368472,442.4148 L411.66291784,442.4148 L411.66291784,480.636 L414.41215096,480.636 L414.41215096,467.8956 L417.16138408,467.8956 L417.16138408,442.4148 L419.9106172,442.4148 L419.9106172,499.7466 L422.65985032,499.7466 L422.65985032,467.8956 L425.40908344,467.8956 L425.40908344,461.5254 L428.15831656,461.5254 L428.15831656,461.5254 L430.90754968,461.5254 L430.90754968,487.0062 L433.6567828,487.0062 L433.6567828,487.0062 L436.40601592,487.0062 L436.40601592,461.5254 L439.15524904,461.5254 L439.15524904,474.2658 L441.90448216,474.2658 L441.90448216,487.0062 L444.65371528,487.0062 L444.65371528,499.7466 L447.4029484,499.7466 L447.4029484,474.2658 L450.15218152,474.2658 L450.15218152,467.8956 L452.90141464,467.8956 L452.90141464,499.7466 L455.65064776,499.7466 L455.65064776,429.6744 L458.39988088,429.6744 L458.39988088,480.636 L461.149114,480.636 L461.149114,455.1552 L463.89834712,455.1552 L463.89834712,474.2658 L466.64758024,474.2658 L466.64758024,474.2658 L469.39681336,474.2658 L469.39681336,474.2658 L472.14604648,474.2658 L472.14604648,455.1552 L474.8952796,455.1552 L474.8952796,518.8572 L477.64451272,518.8572 L477.64451272,480.636 L480.39374584,480.636 L480.39374584,474.2658 L483.14297896,474.2658 L483.14297896,474.2658 L485.89221208,474.2658 L485.89221208,487.0062 L488.6414452,487.0062 L488.6414452,467.8956 L491.39067832,467.8956 L491.39067832,499.7466 L494.13991144,499.7466 L494.13991144,474.2658 L496.88914456,474.2658 L496.88914456,480.636 L499.63837768,480.636 L499.63837768,455.1552 L502.3876108,455.1552 L502.3876108,493.3764 L505.13684392,493.3764 L505.13684392,474.2658 L507.88607704,474.2658 L507.88607704,499.7466 L510.63531016,499.7466 L510.63531016,448.785 L513.38728156,448.785 L513.38728156,487.0062 L516.13651468,487.0062 L516.13651468,493.3764 L518.8857478,493.3764 L518.8857478,487.0062 L521.63498092,487.0062 L521.63498092,474.2658 L524.38421404,474.2658 L524.38421404,493.3764 L527.13344716,493.3764 L527.13344716,455.1552 L529.88268028,455.1552 L529.88268028,499.7466 L532.6319134,499.7466 L532.6319134,480.636 L535.38114652,480.636 L535.38114652,480.636 L538.13037964,480.636 L538.13037964,480.636 L540.87961276,480.636 L540.87961276,487.0062 L543.62884588,487.0062 L543.62884588,493.3764 L546.378079,493.3764 L546.378079,455.1552 L549.12731212,455.1552 L549.12731212,467.8956 L551.87654524,467.8956 L551.87654524,467.8956 L554.62577836,467.8956 L554.62577836,499.7466 L557.37501148,499.7466 L557.37501148,461.5254 L560.1242446,461.5254 L560.1242446,467.8956 L562.87347772,467.8956 L562.87347772,499.7466 L565.62271084,499.7466 L565.62271084,474.2658 L568.37194396,474.2658 L568.37194396,455.1552 L571.12117708,455.1552 L571.12117708,461.5254 L573.8704102,461.5254 L573.8704102,506.1168 L576.61964332,506.1168 L576.61964332,455.1552 L579.36887644,455.1552 L579.36887644,499.7466 L582.11810956,499.7466 L582.11810956,487.0062 L584.86734268,487.0062 L584.86734268,474.2658 L587.6165758,474.2658 L587.6165758,493.3764 L590.36580892,493.3764 L590.36580892,455.1552 L593.11504204,455.1552 L593.11504204,499.7466 L595.86427516,499.7466 L595.86427516,518.8572 L598.61350828,518.8572 L598.61350828,499.7466 L601.3627414,499.7466 L601.3627414,480.636 L604.11197452,480.636 L604.11197452,506.1168 L606.86120764,506.1168 L606.86120764,461.5254 L609.61044076,461.5254 L609.61044076,487.0062 L612.35967388,487.0062 L612.35967388,461.5254 L615.108907,461.5254 L615.108907,474.2658 L617.85814012,474.2658 L617.85814012,455.1552 L620.60737324,455.1552 L620.60737324,480.636 L623.35660636,480.636 L623.35660636,493.3764 L626.10583948,493.3764 L626.10583948,487.0062 L628.8550726,487.0062 L628.8550726,506.1168 L631.60430572,506.1168 L631.60430572,499.7466 L634.35353884,499.7466 L634.35353884,506.1168 L637.10277196,506.1168 L637.10277196,518.8572 L639.85200508,518.8572 L639.85200508,544.338 L642.6012382,544.338 L642.6012382,544.338 L645.35047132,544.338 L645.35047132,544.338 L648.09970444,544.338 L648.09970444,544.338 L650.84893756,544.338 L650.84893756,544.338 L653.59817068,544.338 L653.59817068,544.338 L656.3474038,544.338 L656.3474038,537.9678 L659.09663692,537.9678 L659.09663692,544.338 L661.84587004,544.338 L661.84587004,544.338 L664.59510316,544.338 L664.59510316,537.9678 L667.34433628,537.9678 L667.34433628,544.338 L670.0935694,544.338 L670.0935694,544.338 L672.84280252,544.338 L672.84280252,537.9678 L675.59203564,537.9678 L675.59203564,544.338 L678.34126876,544.338 L678.34126876,544.338 L681.09050188,544.338 L681.09050188,537.9678 L683.84247328,537.9678 L683.84247328,544.338 L686.5917064,544.338 L686.5917064,537.9678 L689.34093952,537.9678 L689.34093952,537.9678 L692.09017264,537.9678 L692.09017264,537.9678 L694.83940576,537.9678 L694.83940576,537.9678 L697.58863888,537.9678 L697.58863888,544.338 L700.337872,544.338 L700.337872,531.5976 L703.08710512,531.5976 L703.08710512,531.5976 L705.83633824,531.5976 L705.83633824,537.9678 L708.58557136,537.9678 L708.58557136,544.338 L711.33480448,544.338 L711.33480448,537.9678 L714.0840376,537.9678 L714.0840376,537.9678 L716.83327072,537.9678 L716.83327072,537.9678 L719.58250384,537.9678 L719.58250384,531.5976 L722.33173696,531.5976 L722.33173696,537.9678 L725.08097008,537.9678 L725.08097008,531.5976 L727.8302032,531.5976 L727.8302032,537.9678 L730.57943632,537.9678 L730.57943632,537.9678 L733.32866944,537.9678 L733.32866944,525.2274 L736.07790256,525.2274 L736.07790256,537.9678 L738.82713568,537.9678 L738.82713568,537.9678 L741.5763688,537.9678 L741.5763688,537.9678 L744.32560192,537.9678 L744.32560192,537.9678 L747.07483504,537.9678 L747.07483504,518.8572 L749.82406816,518.8572 L749.82406816,525.2274 L752.57330128,525.2274 L752.57330128,531.5976 L755.3225344,531.5976 L755.3225344,531.5976 L758.07176752,531.5976 L758.07176752,531.5976 L760.82100064,531.5976 L760.82100064,537.9678 L763.57023376,537.9678 L763.57023376,537.9678 L766.31946688,537.9678 L766.31946688,518.8572 L769.0687,518.8572 L769.0687,544.338 " fill-rule="evenodd" vector-effect="non-scaling-stroke"/>
                            </g>
                        </g>
                    </g>
                </g>
            </g>
            <g fill="none" fill-rule="evenodd" id="LabelItem_3" stroke="black" stroke-linecap="square" stroke-linejoin="bevel" stroke-width="1">
                <g fill="none" fill-rule="evenodd" id="QGraphicsTextItem_7" stroke="black" stroke-linecap="square" stroke-linejoin="bevel" stroke-width="1">
                    


                    <g fill="none" font-family=".Helvetica Neue DeskInterface" font-size="13" font-style="normal" font-weight="400" stroke="#000000" stroke-linecap="square" stroke-linejoin="bevel" stroke-opacity="1" stroke-width="1" transform="matrix(1,0,0,1,307.705,308.5)">
                        <text fill="#000000" fill-opacity="1" font-family="&quot;.Helvetica Neue DeskInterface&quot;, sans-serif" font-size="11" font-style="normal" font-weight="400" stroke="none" x="4" xml:space="preserve" y="12.4688">AN (1 fiber: 4.0 kHz, 40db SPL, HSR, 50 Reps)</text>
                    </g>
                    


                    

                </g>
            </g>
            <g fill="none" fill-rule="evenodd" id="LabelItem_4" stroke="black" stroke-linecap="square" stroke-linejoin="bevel" stroke-width="1">
                <g fill="none" fill-rule="evenodd" id="QGraphicsTextItem_8" stroke="black" stroke-linecap="square" stroke-linejoin="bevel" stroke-width="1">
                    


                    <g fill="none" font-family=".Helvetica Neue DeskInterface" font-size="13" font-style="normal" font-weight="400" stroke="#000000" stroke-linecap="square" stroke-linejoin="bevel" stroke-opacity="1" stroke-width="1" transform="matrix(1,0,0,1,22.7287,307)">
                        <text fill="#000000" fill-opacity="1" font-family="&quot;.Helvetica Neue DeskInterface&quot;, sans-serif" font-size="14" font-style="normal" font-weight="700" stroke="none" x="4" xml:space="preserve" y="14.7656">B</text>
                    </g>
                    


                    

                </g>
            </g>
        </g>
    </g>
</g>

</svg>
